<?xml version="1.0" encoding="UTF-8"?>
<svg xmlns="http://www.w3.org/2000/svg" viewBox="0 0 450 280" width="450" height="280">
  <rect width="450" height="280" fill="white" rx="8"/>
  
  <!-- Rice bag -->
  <ellipse cx="100" cy="130" rx="60" ry="70" fill="#f0e8c4" stroke="#1e375a" stroke-width="3"/>
  <text x="100" y="120" text-anchor="middle" font-family="Arial, sans-serif" font-size="20" fill="#1e375a" font-weight="bold">🍚</text>
  <text x="100" y="150" text-anchor="middle" font-family="Arial, sans-serif" font-size="18" fill="#00abe4" font-weight="bold">3½ kg</text>
  
  <!-- Arrow -->
  <text x="175" y="140" text-anchor="middle" font-family="Arial, sans-serif" font-size="28" fill="#00abe4">→</text>
  
  <!-- 5 people (Peter + 4 friends) -->
  <g transform="translate(220, 40)">
    <circle cx="30" cy="40" r="20" fill="#e8f6fe" stroke="#1e375a" stroke-width="2"/>
    <text x="30" y="45" text-anchor="middle" font-family="Arial, sans-serif" font-size="11" fill="#1e375a">Peter</text>
    <rect x="10" y="65" width="40" height="35" fill="#d0ebf9" stroke="#1e375a" stroke-width="1.5" rx="3"/>
    <text x="30" y="87" text-anchor="middle" font-family="Arial, sans-serif" font-size="10" fill="#1e375a">? kg</text>
  </g>
  <g transform="translate(280, 40)">
    <circle cx="30" cy="40" r="20" fill="#e8f6fe" stroke="#1e375a" stroke-width="2"/>
    <text x="30" y="45" text-anchor="middle" font-family="Arial, sans-serif" font-size="11" fill="#1e375a">朋友A</text>
    <rect x="10" y="65" width="40" height="35" fill="#d0ebf9" stroke="#1e375a" stroke-width="1.5" rx="3"/>
    <text x="30" y="87" text-anchor="middle" font-family="Arial, sans-serif" font-size="10" fill="#1e375a">? kg</text>
  </g>
  <g transform="translate(340, 40)">
    <circle cx="30" cy="40" r="20" fill="#e8f6fe" stroke="#1e375a" stroke-width="2"/>
    <text x="30" y="45" text-anchor="middle" font-family="Arial, sans-serif" font-size="11" fill="#1e375a">朋友B</text>
    <rect x="10" y="65" width="40" height="35" fill="#d0ebf9" stroke="#1e375a" stroke-width="1.5" rx="3"/>
    <text x="30" y="87" text-anchor="middle" font-family="Arial, sans-serif" font-size="10" fill="#1e375a">? kg</text>
  </g>
  <g transform="translate(240, 160)">
    <circle cx="30" cy="40" r="20" fill="#e8f6fe" stroke="#1e375a" stroke-width="2"/>
    <text x="30" y="45" text-anchor="middle" font-family="Arial, sans-serif" font-size="11" fill="#1e375a">朋友C</text>
    <rect x="10" y="65" width="40" height="35" fill="#d0ebf9" stroke="#1e375a" stroke-width="1.5" rx="3"/>
    <text x="30" y="87" text-anchor="middle" font-family="Arial, sans-serif" font-size="10" fill="#1e375a">? kg</text>
  </g>
  <g transform="translate(300, 160)">
    <circle cx="30" cy="40" r="20" fill="#e8f6fe" stroke="#1e375a" stroke-width="2"/>
    <text x="30" y="45" text-anchor="middle" font-family="Arial, sans-serif" font-size="11" fill="#1e375a">朋友D</text>
    <rect x="10" y="65" width="40" height="35" fill="#d0ebf9" stroke="#1e375a" stroke-width="1.5" rx="3"/>
    <text x="30" y="87" text-anchor="middle" font-family="Arial, sans-serif" font-size="10" fill="#1e375a">? kg</text>
  </g>
  
  <text x="180" y="260" text-anchor="middle" font-family="Arial, sans-serif" font-size="14" fill="#1e375a">每人分得相同重量 → 3½ ÷ 5 = ?</text>
</svg>